# xmcd
#
# Track frame offsets: 
#        197
#        3845
#        22322
#        36260
#        47787
#        59425
#        69855
#        85260
#        101190
#        111950
#        126552
#        141757
#        154400
#        169340
#        183957
#        199560
#        201690
#        222090
#        242490
#        256405
#        260305
#        265757
#        273305
#        279697
#        290567
#        303755
#        306937
#        309430
#        312807
#
# Disc length: 4309 seconds
#
# Revision: 0
# Processed by: cddbd v1.4PL0 Copyright (c) Steve Scherf et al.
# Submitted via: ExactAudioCopy v0.95a3
#
DISCID=b610d31d
DTITLE=Don Williams - An Evening With Don Williams - Best Of Live
DYEAR=1994
DGENRE=Country
TTITLE0=Introduction
TTITLE1=Good Ole Boys Like Me
TTITLE2=She's In Love With A Rodeo Man
TTITLE3=Some Broken Hearts Never Mend
TTITLE4=The Ties That Bind
TTITLE5=Louisiana Saturday Night
TTITLE6=Till The RiversAll Run Dry
TTITLE7=I Recall A Gypsy Woman
TTITLE8=It Must Be Love
TTITLE9=Lay Down Beside Me
TTITLE10=Lord, I Hope This Day Is Good
TTITLE11=(I'm Just A) Country Boy
TTITLE12=Tulsa Time
TTITLE13=Amanda
TTITLE14=You're My Best Friend
TTITLE15=Dialogue
TTITLE16=I Believe In You
TTITLE17=Interview With Don Williams - 1
TTITLE18=Interview With Don Williams - 2
TTITLE19=Interview With Don Williams - 3
TTITLE20=Interview With Don Williams - 4
TTITLE21=Interview With Don Williams - 5
TTITLE22=Interview With Don Williams - 6
TTITLE23=Interview With Don Williams - 7
TTITLE24=Interview With Don Williams - 8
TTITLE25=Interview With Don Williams - 9
TTITLE26=Interview With Don Williams - 10
TTITLE27=Interview With Don Williams - 11
TTITLE28=Interview With Don Williams - 12
EXTD=
EXTT0=
EXTT1=
EXTT2=
EXTT3=
EXTT4=
EXTT5=
EXTT6=
EXTT7=
EXTT8=
EXTT9=
EXTT10=
EXTT11=
EXTT12=
EXTT13=
EXTT14=
EXTT15=
EXTT16=
EXTT17=
EXTT18=
EXTT19=
EXTT20=
EXTT21=
EXTT22=
EXTT23=
EXTT24=
EXTT25=
EXTT26=
EXTT27=
EXTT28=
PLAYORDER=
